# xmcd CD database file
#
# Track frame offsets:
#	150
#	90315
#	122831
#	162159
#
# Disc length: 2485 seconds
#
# Revision: 0
# Processed by: cddbd v1.5.2PL0 Copyright (c) Steve Scherf et al.
# Submitted via: CDex 1.70beta2
#
DISCID=2509b304
DTITLE=Braxton, Anthony - Four Compositions (Quartet) 1983
DYEAR=1983
DGENRE=Jazz
TTITLE0=Composition Nr. 105 A
TTITLE1=Composition Nr. 69 M
TTITLE2=Composition Nr. 69 O
TTITLE3=Composition Nr. 69 Q
EXTD=YEAR: 1983
EXTT0=
EXTT1=
EXTT2=
EXTT3=
PLAYORDER=
